<?xml version="1.0"?>
<svg xmlns="http://www.w3.org/2000/svg" xmlns:xlink="http://www.w3.org/1999/xlink" version="1.1" id="Layer_1" x="0px" y="0px" viewBox="0 0 512 512" style="enable-background:new 0 0 512 512;" xml:space="preserve" width="512px" height="512px"><g><g>
	<g>
		<path d="M372.364,63.883c-13.507-13.514-29.216-24.487-46.287-32.532h64.496c3.236,9.119,11.946,15.669,22.161,15.669    c12.964,0,23.51-10.546,23.51-23.51S425.699,0,412.735,0c-10.218,0-18.929,6.554-22.163,15.677H279.51V0h-47.02v15.677H121.429    C118.195,6.554,109.483,0,99.265,0c-12.964,0-23.51,10.547-23.51,23.51c0,12.963,10.546,23.51,23.51,23.51    c10.215,0,18.925-6.55,22.161-15.67h64.477c-49.019,23.163-84.845,69.844-92.806,125.388H75.755v47.02h47.02v-47.02h-13.82    C119.015,93.417,169.168,43.262,232.49,33.201v13.82h47.02V33.203c30.797,4.914,59.565,19.547,81.772,41.762    c22.215,22.205,36.846,50.974,41.76,81.772h-13.818v47.02h47.02v-47.02h-17.343C413.869,121.759,397.506,89.014,372.364,63.883z     M412.735,15.673c4.322,0,7.837,3.516,7.837,7.837c0,4.321-3.515,7.837-7.837,7.837c-4.322,0-7.837-3.516-7.837-7.837    C404.898,19.19,408.413,15.673,412.735,15.673z M99.265,31.347c-4.322,0-7.837-3.516-7.837-7.837c0-4.321,3.515-7.837,7.837-7.837    s7.837,3.516,7.837,7.837C107.102,27.831,103.587,31.347,99.265,31.347z M107.102,188.085H91.429v-15.673h15.673V188.085z     M263.837,31.347h-15.673V15.673h15.673V31.347z M420.571,188.085h-15.673v-15.673h15.673V188.085z" data-original="#000000" class="active-path" data-old_color="#000000" fill="#1FA2F2"/>
	</g>
</g><g>
	<g>
		<path d="M160.709,305.028l87.455-164.415v99.191h15.673v-99.191l87.455,164.415l-34.492,48.295l12.753,9.109l40.135-56.195    L256,92.504L142.312,306.238l46.215,64.701h-29.18v41.796h34.75L173.199,512h165.602l-20.898-99.265h34.75v-41.796H207.788    L160.709,305.028z M319.485,496.327h-126.97l17.598-83.592h91.773L319.485,496.327z M336.98,397.061H175.02v-10.449H336.98    V397.061z" data-original="#000000" class="active-path" data-old_color="#000000" fill="#1FA2F2"/>
	</g>
</g><g>
	<g>
		<path d="M256,250.775c-17.285,0-31.347,14.062-31.347,31.347c0,17.285,14.062,31.347,31.347,31.347s31.347-14.062,31.347-31.347    C287.347,264.838,273.285,250.775,256,250.775z M256,297.796c-8.642,0-15.673-7.031-15.673-15.673s7.031-15.673,15.673-15.673    c8.642,0,15.673,7.031,15.673,15.673S264.642,297.796,256,297.796z" data-original="#000000" class="active-path" data-old_color="#000000" fill="#1FA2F2"/>
	</g>
</g></g> </svg>
