<svg xmlns="http://www.w3.org/2000/svg" viewBox="0 0 235.11 558.95"><defs><style>.cls-1{fill:none;stroke:#fff;stroke-miterlimit:10;stroke-width:5px;}.cls-2{fill:#fff;}</style></defs><title>ss_white</title><g id="Layer_2" data-name="Layer 2"><g id="Layer_1-2" data-name="Layer 1"><polygon class="cls-1" points="83.74 2.5 151.38 2.5 232.55 2.5 232.55 83.67 232.55 149.17 232.55 156.3 232.55 229.63 232.55 231.77 232.55 237.47 83.74 323.62 83.73 323.62 83.73 336.06 83.73 337.86 83.74 337.86 83.74 475.28 151.38 475.28 151.38 339.28 232.55 339.28 232.55 475.28 232.55 556.45 151.38 556.45 83.74 556.45 2.57 556.45 2.57 475.28 2.57 369.9 2.57 362.78 2.57 289.44 2.57 284.46 2.57 281.61 151.38 195.45 151.38 83.67 83.74 83.67 83.74 175.52 2.57 175.52 2.57 83.67 2.57 2.5 83.74 2.5"/><polygon class="cls-2" points="151.88 0.66 83.09 0.66 0.55 0.66 0.55 82.1 0.55 147.82 0.55 154.97 0.55 228.54 0.55 230.69 0.55 236.4 151.88 322.85 149.82 321.67 149.55 337.13 149.55 337.13 151.88 337.13 151.88 475.01 83.09 475.01 83.09 338.56 0.55 338.56 0.55 475.01 0.55 556.45 83.09 556.45 151.88 556.45 234.41 556.45 234.41 475.01 234.41 369.28 234.41 362.13 234.41 288.55 234.41 283.55 234.41 280.69 83.09 194.25 83.09 82.1 151.88 82.1 151.88 174.25 234.41 174.25 234.41 82.1 234.41 0.66 151.88 0.66"/><rect class="cls-2" x="149.46" y="320.13" width="5.75" height="23.48"/><rect class="cls-2" x="79.87" y="172.78" width="5.75" height="23.48"/><rect class="cls-2" x="148.9" y="315.37" width="5.13" height="31.57"/><rect class="cls-2" x="81.04" y="166.41" width="5.13" height="31.57"/><rect class="cls-2" y="176.16" width="5.13" height="60.22"/><rect class="cls-2" x="229.98" y="280.62" width="5.13" height="76.72"/></g></g></svg>